{"title":"[MARATHI] Tumcha Aamcha Same Asta - Drama x264 MP3 [TMB]","uid":8979644,"size":586013490,"categoryP":"video","categoryS":"movies","magnet":"?xt=urn:btih:d8b4fd33d4a1c640926f54a5f71907e2a6dfee3d&amp;dn=%5BMARATHI%5D+Tumcha+Aamcha+Same+Asta+-+Drama+x264+MP3+%5BTMB%5D&amp;tr=udp%3A%2F%2Ftracker.openbittorrent.com%3A80&amp;tr=udp%3A%2F%2Fopen.demonii.com%3A1337&amp;tr=udp%3A%2F%2Ftracker.coppersurfer.tk%3A6969&amp;tr=udp%3A%2F%2Fexodus.desync.com%3A6969","seeders":0,"leechers":1,"uploader":"SJonam","files":2,"time":1380529382,"description":"The Mumbai Boys [TMB] Exclusive\n &lt;a href=&quot;\nhttp://t1.someimage.com/onRBwkr.jpg&quot; rel=&quot;nofollow&quot; target=&quot;_NEW&quot;&gt;\nhttp://t1.someimage.com/onRBwkr.jpg&lt;/a&gt; &lt;a href=&quot;\nhttp://t1.someimage.com/Okz9471.jpg&quot; rel=&quot;nofollow&quot; target=&quot;_NEW&quot;&gt;\nhttp://t1.someimage.com/Okz9471.jpg&lt;/a&gt; &lt;a href=&quot;\nhttp://t1.someimage.com/Wq4A4yE.jpg&quot; rel=&quot;nofollow&quot; target=&quot;_NEW&quot;&gt;\nhttp://t1.someimage.com/Wq4A4yE.jpg&lt;/a&gt; &lt;a href=&quot;\nhttp://t1.someimage.com/rdBxMrM.jpg&quot; rel=&quot;nofollow&quot; target=&quot;_NEW&quot;&gt;\nhttp://t1.someimage.com/rdBxMrM.jpg&lt;/a&gt; &lt;a href=&quot;\nhttp://t1.someimage.com/08dmjv5.jpg&quot; rel=&quot;nofollow&quot; target=&quot;_NEW&quot;&gt;\nhttp://t1.someimage.com/08dmjv5.jpg&lt;/a&gt; &lt;a href=&quot;\nhttp://t1.someimage.com/Mn7ryxq.jpg&quot; rel=&quot;nofollow&quot; target=&quot;_NEW&quot;&gt;\nhttp://t1.someimage.com/Mn7ryxq.jpg&lt;/a&gt;\n\n\nMedia Info - \nGeneral\nComplete name                  : Tumcha Aamcha Same Asta - Drama x264 MP3 [TMB].avi\nFormat                         : AVI\nFormat/Info                    : Audio Video Interleave\nFile size                      : 552 MiB\nDuration                       : 1h 54mn\nOverall bit rate               : 672 Kbps\nWriting application            : Lavf54.63.104\n\nVideo\nFormat                         : AVC\nFormat/Info                    : Advanced Video Codec\nFormat profile                 : &lt;a class=&quot;__cf_email__&quot; href=&quot;/cdn-cgi/l/email-protection&quot; data-cfemail=&quot;3c715d55527c700f120c&quot;&gt;[email&amp;#160;protected]&lt;/a&gt;&lt;script cf-hash='f9e31' type=&quot;text/javascript&quot;&gt;\n/* &lt;![CDATA[ */!function(){try{var t=&quot;currentScript&quot;in document?document.currentScript:function(){for(var t=document.getElementsByTagName(&quot;script&quot;),e=t.length;e--;)if(t[e].getAttribute(&quot;cf-hash&quot;))return t[e]}();if(t&amp;&amp;t.previousSibling){var e,r,n,i,c=t.previousSibling,a=c.getAttribute(&quot;data-cfemail&quot;);if(a){for(e=&quot;&quot;,r=parseInt(a.substr(0,2),16),n=2;a.length-n;n+=2)i=parseInt(a.substr(n,2),16)^r,e+=String.fromCharCode(i);e=document.createTextNode(e),c.parentNode.replaceChild(e,c)}}}catch(u){}}();/* ]]&gt; */&lt;/script&gt;\nFormat settings, CABAC         : Yes\nFormat settings, ReFrames      : 1 frame\nCodec ID                       : H264\nDuration                       : 1h 54mn\nBit rate                       : 402 Kbps\nWidth                          : 640 pixels\nHeight                         : 480 pixels\nDisplay aspect ratio           : 4:3\nFrame rate mode                : Variable\nFrame rate                     : 25.000 fps\nColor space                    : YUV\nChroma subsampling             : 4:2:0\nBit depth                      : 8 bits\nScan type                      : Progressive\nBits/(Pixel*Frame)             : 0.052\nStream size                    : 332 MiB (60%)\nWriting library                : x264 core 129\n\nAudio\nFormat                         : MPEG Audio\nFormat version                 : Version 1\nFormat profile                 : Layer 3\nMode                           : Joint stereo\nMode extension                 : MS Stereo\nCodec ID                       : 55\nCodec ID/Hint                  : MP3\nDuration                       : 1h 54mn\nBit rate mode                  : Constant\nBit rate                       : 256 Kbps\nChannel count                  : 2 channels\nSampling rate                  : 44.1 KHz\nCompression mode               : Lossy\nStream size                    : 210 MiB (38%)\nAlignment                      : Aligned on interleaves\nInterleave, duration           : 26 ms (0.65 video frame)\nWriting library                : LAME3.99.5\n\nSample in Torrent...\n\nRipper : Manojvb\n\nSeeding 24x7... Extreme Seeding...\n\n\nEnjoy!\n","torrent":{"xt":"urn:btih:d8b4fd33d4a1c640926f54a5f71907e2a6dfee3d","amp;dn":"%5BMARATHI%5D+Tumcha+Aamcha+Same+Asta+-+Drama+x264+MP3+%5BTMB%5D","amp;tr":["udp%3A%2F%2Ftracker.openbittorrent.com%3A80","udp%3A%2F%2Fopen.demonii.com%3A1337","udp%3A%2F%2Ftracker.coppersurfer.tk%3A6969","udp%3A%2F%2Fexodus.desync.com%3A6969"],"infoHash":"d8b4fd33d4a1c640926f54a5f71907e2a6dfee3d","infoHashBuffer":{"type":"Buffer","data":[216,180,253,51,212,161,198,64,146,111,84,165,247,25,7,226,166,223,238,61]},"announce":[],"urlList":[]}}